HIERARCHY
ROOT SpineBase
{
  OFFSET 0.000000 0.000000 0.000000
  CHANNELS 6 Xposition Yposition Zposition Zrotation Xrotation Yrotation
  JOINT SpineMid
  {
    OFFSET 0.000000 27.499793 0.000000
    CHANNELS 3 Zrotation Xrotation Yrotation
    JOINT SpineShoulder
    {
      OFFSET -0.040999 20.515519 -0.627671
      CHANNELS 3 Zrotation Xrotation Yrotation
      JOINT Neck
      {
        OFFSET -0.006248 6.812065 -0.473301
        CHANNELS 3 Zrotation Xrotation Yrotation
        JOINT Head
        {
          OFFSET 4.211252 13.589466 0.407096
          CHANNELS 3 Zrotation Xrotation Yrotation
          End Site
          {
            OFFSET 0 0 0
          }
        }
      }
      JOINT ShoulderLeft
      {
        OFFSET -9.478895 -3.702108 -12.167915
        CHANNELS 3 Zrotation Xrotation Yrotation
        JOINT ElbowLeft
        {
          OFFSET -2.334398 -21.102004 -5.438229
          CHANNELS 3 Zrotation Xrotation Yrotation
          JOINT WristLeft
          {
            OFFSET 17.761572 -19.697098 3.635382
            CHANNELS 3 Zrotation Xrotation Yrotation
            JOINT HandLeft
            {
              OFFSET 7.977395 -4.478321 3.024467
              CHANNELS 3 Zrotation Xrotation Yrotation
              JOINT HandTipLeft
              {
                OFFSET 3.760143 -2.489092 2.858328
                CHANNELS 3 Zrotation Xrotation Yrotation
                End Site
                {
                  OFFSET 0 0 0
                }
              }
              JOINT ThumbLeft
              {
                OFFSET -0.087342 -2.121125 -2.029693
                CHANNELS 3 Zrotation Xrotation Yrotation
                End Site
                {
                  OFFSET 0 0 0
                }
              }
            }
          }
        }
      }
      JOINT ShoulderRight
      {
        OFFSET 11.733584 -3.043758 11.443749
        CHANNELS 3 Zrotation Xrotation Yrotation
        JOINT ElbowRight
        {
          OFFSET -0.349707 -22.586411 3.332280
          CHANNELS 3 Zrotation Xrotation Yrotation
          JOINT WristRight
          {
            OFFSET 3.668245 -18.919983 -17.299050
            CHANNELS 3 Zrotation Xrotation Yrotation
            JOINT HandRight
            {
              OFFSET 0.927882 -2.928080 -3.412123
              CHANNELS 3 Zrotation Xrotation Yrotation
              JOINT HandTipRight
              {
                OFFSET -0.792278 -5.276094 -4.520639
                CHANNELS 3 Zrotation Xrotation Yrotation
                End Site
                {
                  OFFSET 0 0 0
                }
              }
              JOINT ThumbRight
              {
                OFFSET 2.388282 -1.569213 -1.003511
                CHANNELS 3 Zrotation Xrotation Yrotation
                End Site
                {
                  OFFSET 0 0 0
                }
              }
            }
          }
        }
      }
    }
  }
  JOINT HipLeft
  {
    OFFSET -4.170181 1.452780 -6.803696
    CHANNELS 3 Zrotation Xrotation Yrotation
    JOINT KneeLeft
    {
      OFFSET -5.808709 -29.134918 1.550483
      CHANNELS 3 Zrotation Xrotation Yrotation
      JOINT AnkleLeft
      {
        OFFSET -5.282359 -35.519296 8.910416
        CHANNELS 3 Zrotation Xrotation Yrotation
        JOINT FootLeft
        {
          OFFSET 5.485545 -5.882008 -5.211414
          CHANNELS 3 Zrotation Xrotation Yrotation
          End Site
          {
            OFFSET 0 0 0
          }
        }
      }
    }
  }
  JOINT HipRight
  {
    OFFSET 4.361296 -0.192136 1.224367
    CHANNELS 3 Zrotation Xrotation Yrotation
    JOINT KneeRight
    {
      OFFSET -0.880913 -32.016625 7.860821
      CHANNELS 3 Zrotation Xrotation Yrotation
      JOINT AnkleRight
      {
        OFFSET -6.134887 -30.979868 5.380907
        CHANNELS 3 Zrotation Xrotation Yrotation
        JOINT FootRight
        {
          OFFSET -2.893743 -6.809079 -6.249603
          CHANNELS 3 Zrotation Xrotation Yrotation
          End Site
          {
            OFFSET 0 0 0
          }
        }
      }
    }
  }
}
MOTION
Frames: 14
Frame Time: 0.033333
-18.039961 71.935192 344.161703 -0.000000 0.000000 -43.258730 -0.000000 0.000000 43.258730 -0.000000 0.000000 0.000000 -0.000000 0.000000 0.000000 0.000000 0.000000 0.000000 -0.000000 0.000000 0.000000 -0.000000 0.000000 0.000000 -0.000000 0.000000 0.000000 -0.000000 0.000000 0.000000 0.000000 0.000000 0.000000 0.000000 0.000000 0.000000 -0.000000 0.000000 0.000000 -0.000000 0.000000 0.000000 -0.000000 0.000000 0.000000 -0.000000 0.000000 0.000000 0.000000 0.000000 0.000000 0.000000 0.000000 0.000000 -0.000000 0.000000 43.258730 -0.000000 0.000000 0.000000 -0.000000 0.000000 0.000000 0.000000 0.000000 0.000000 -0.000000 0.000000 43.258730 -0.000000 0.000000 0.000000 -0.000000 0.000000 0.000000 0.000000 0.000000 0.000000
-18.101010 71.947368 344.226215 0.081504 -0.221987 -43.852681 -0.212569 0.103613 43.853031 -0.000000 0.000000 0.000000 -0.000000 0.000000 0.000000 0.000000 0.000000 0.000000 0.890783 -1.377848 -0.066691 -0.892644 1.376643 0.088127 -0.818664 -0.246490 -1.005047 0.634201 -0.349540 -0.130676 0.000000 0.000000 0.000000 0.000000 0.000000 0.000000 0.893351 -3.169282 0.204789 -0.372250 2.292146 -0.823416 -5.620989 13.519994 9.991512 4.361697 -10.967346 -9.318178 0.000000 0.000000 0.000000 0.000000 0.000000 0.000000 -0.212569 0.103613 43.853031 -0.000000 0.000000 0.000000 -0.052030 0.934819 0.912126 0.000000 0.000000 0.000000 -0.212569 0.103613 43.853031 -0.000000 0.000000 0.000000 -3.879590 3.437390 2.127879 0.000000 0.000000 0.000000
-18.159941 71.955017 344.274824 0.148538 -0.406539 -44.335300 -0.390358 0.186973 44.336464 -0.000000 0.000000 0.000000 -0.000000 0.000000 0.000000 0.000000 0.000000 0.000000 1.593157 -2.449693 -0.106248 -0.395343 2.637974 0.510063 -2.903523 -0.637613 -2.430650 1.441120 -0.532887 0.128796 0.000000 0.000000 0.000000 0.000000 0.000000 0.000000 1.649339 -5.776784 0.413107 -0.692692 4.134739 -1.509681 -10.856062 21.716129 17.602810 7.206345 -17.428759 -14.965511 0.000000 0.000000 0.000000 0.000000 0.000000 0.000000 0.179381 -0.642543 44.527098 0.175510 0.990902 -0.189887 0.024476 1.664592 1.510629 0.000000 0.000000 0.000000 -0.390358 0.186973 44.336464 -0.629241 1.033336 -0.308402 -5.969010 4.667544 3.882108 0.000000 0.000000 0.000000
-18.216754 71.958140 344.307532 0.201134 -0.553745 -44.710354 -0.532517 0.252021 44.712497 -0.000000 0.000000 0.000000 -0.115798 0.832722 -0.253612 0.000000 0.000000 0.000000 2.133059 -3.255093 -0.130194 -0.519636 3.487705 0.660332 -4.260989 -0.852903 -3.592231 2.417763 -0.539893 0.782554 0.000000 0.000000 0.000000 0.000000 0.000000 0.000000 2.286862 -7.904562 0.611983 -0.977797 5.605870 -2.066052 -15.038246 26.623759 23.164754 9.492680 -20.727807 -18.372645 0.000000 0.000000 0.000000 0.000000 0.000000 0.000000 0.265890 -0.831179 44.971396 0.758908 2.024847 -0.237920 -0.318549 1.507110 1.771918 0.000000 0.000000 0.000000 -0.532517 0.252021 44.712497 -0.801426 1.342796 -0.395990 -7.443434 5.741785 4.854374 0.000000 0.000000 0.000000
-18.271449 71.956737 344.324337 0.239327 -0.663693 -44.980842 -0.638439 0.300273 44.983901 -0.000000 0.000000 0.000000 -0.113194 1.016754 -0.310517 0.000000 0.000000 0.000000 2.529069 -3.822825 -0.146017 -0.620569 4.065370 0.749474 -5.550650 -0.990270 -4.692193 3.546242 -0.377158 1.794647 0.000000 0.000000 0.000000 0.000000 0.000000 0.000000 2.820526 -9.619553 0.793320 -1.240460 6.768643 -2.498573 -18.124756 29.618633 27.094333 11.439310 -22.004261 -20.415231 0.000000 0.000000 0.000000 0.000000 0.000000 0.000000 0.350362 -0.940760 45.294020 0.848901 2.392868 -0.287083 -0.070955 1.740105 1.772754 0.000000 0.000000 0.000000 -0.638439 0.300273 44.983901 -0.884603 1.521365 -0.443538 -8.022067 6.217171 5.212609 0.000000 0.000000 0.000000
-18.324025 71.950807 344.325241 0.263150 -0.736474 -45.149009 -0.707719 0.332834 45.152756 -0.000000 0.000000 0.000000 -0.090257 1.153813 -0.353761 0.000000 0.000000 0.000000 2.794010 -4.172701 -0.158494 -0.710525 4.390185 0.781846 -6.765055 -1.041266 -5.702737 4.797138 -0.067745 3.095519 0.000000 0.000000 0.000000 0.000000 0.000000 0.000000 3.261534 -10.974319 0.952058 -1.490577 7.672092 -2.812276 -20.226159 31.449566 29.718547 12.985898 -21.970198 -21.593867 0.000000 0.000000 0.000000 0.000000 0.000000 0.000000 0.433436 -0.976139 45.497621 0.857541 2.615550 -0.319844 0.363146 1.849521 1.488827 0.000000 0.000000 0.000000 -0.907283 1.137562 45.241485 -1.309524 0.865544 -0.552489 -7.729990 6.152571 4.965041 0.000000 0.000000 0.000000
-18.376786 71.933704 344.300594 0.272851 -0.768927 -45.168633 -0.737688 0.348589 45.172708 -0.000000 0.000000 0.000000 -0.014185 1.203246 -0.372182 0.000000 0.000000 0.000000 2.559251 -3.537826 -0.191106 -0.879302 3.515351 0.536639 -9.757940 0.213940 -6.216093 8.613731 -0.585943 4.426508 0.000000 0.000000 0.000000 0.000000 0.000000 0.000000 3.742599 -12.328419 1.130852 -1.866261 8.706861 -2.995711 -22.126378 31.837032 31.997435 15.107992 -21.113142 -22.786802 0.000000 0.000000 0.000000 0.000000 0.000000 0.000000 0.324387 -0.790756 45.483726 0.808959 2.294290 -0.258132 5.378849 7.149726 1.375743 0.000000 0.000000 0.000000 -0.940629 1.181330 45.265346 -1.280977 0.854960 -0.551003 -5.053796 4.558248 3.181193 0.000000 0.000000 0.000000
-18.447144 71.920701 344.233594 0.245889 -0.710276 -45.081237 -0.676584 0.327397 45.084694 -0.000000 0.000000 0.000000 0.122419 1.205266 -0.378475 0.000000 0.000000 0.000000 2.643783 -3.564856 -0.206866 -1.114966 3.531127 0.531734 -12.765426 0.556395 -8.400776 12.662322 0.128457 7.806683 0.000000 0.000000 0.000000 0.000000 0.000000 0.000000 4.058615 -13.115907 1.249225 -2.191381 9.282100 -3.023238 -22.325592 30.358690 32.145397 15.652160 -15.602698 -22.760528 0.000000 0.000000 0.000000 0.000000 0.000000 0.000000 0.586848 -0.766924 45.428023 0.621859 2.409788 -0.292000 5.929228 5.214615 -0.609506 0.000000 0.000000 0.000000 -0.922667 1.200951 45.175603 -1.085364 0.607160 -0.480094 -3.240578 3.710723 1.761512 0.000000 0.000000 0.000000
-18.521408 71.915208 344.126866 0.209400 -0.586204 -44.898926 -0.562111 0.267424 44.901309 -0.000000 0.000000 0.000000 0.205618 1.158372 -0.367311 0.000000 0.000000 0.000000 2.657066 -3.562068 -0.210289 -1.746765 3.419325 0.368423 -10.485493 -0.118279 -8.169491 10.394302 0.942758 7.776910 0.000000 0.000000 0.000000 0.000000 0.000000 0.000000 4.124250 -13.104864 1.265658 -2.373343 9.222147 -2.904023 -20.484994 30.235455 30.022383 13.788910 -12.616762 -21.383415 0.000000 0.000000 0.000000 0.000000 0.000000 0.000000 1.001913 -0.729772 45.290026 0.239110 2.556706 -0.354467 1.878675 0.081147 -1.442117 0.000000 0.000000 0.000000 -0.896163 1.336142 45.006038 -0.830215 -0.074655 -0.343402 -6.322317 1.480827 5.115096 0.000000 0.000000 0.000000
-18.587526 71.925037 344.150943 0.252875 -0.629602 -44.667663 -0.622455 0.269989 44.670519 -0.000000 0.000000 0.000000 0.169931 1.018320 -0.322239 0.000000 0.000000 0.000000 2.747554 -3.590900 -0.227134 -2.767150 3.575829 0.399671 -7.601873 -1.336948 -8.541446 7.325261 2.436872 8.296608 0.000000 0.000000 0.000000 0.000000 0.000000 0.000000 4.158232 -13.167814 1.277593 -2.440214 9.055371 -2.915738 -18.947649 33.911901 28.627293 8.466450 -14.411635 -19.260677 0.000000 0.000000 0.000000 0.000000 0.000000 0.000000 1.078655 -0.507152 45.058129 -0.171881 2.488082 -0.382563 -0.353122 -2.251315 -1.544821 0.000000 0.000000 0.000000 -1.175552 1.741476 44.798588 -0.644418 -1.433838 -0.126424 -5.499426 2.329007 4.014827 0.000000 0.000000 0.000000
-18.592035 71.892889 344.220204 0.285462 -0.742579 -44.537139 -0.724309 0.329074 44.541069 -0.000000 0.000000 0.000000 0.146246 1.043309 -0.329073 0.000000 0.000000 0.000000 2.555531 -4.112298 -0.113145 -1.009757 4.059199 0.424710 -3.650403 -2.289057 -5.983650 -0.313655 3.965371 5.949207 0.000000 0.000000 0.000000 0.000000 0.000000 0.000000 4.242343 -13.382083 1.310253 -2.547004 9.070827 -2.929184 -17.265479 38.475320 27.168975 4.345870 -16.182911 -17.912427 0.000000 0.000000 0.000000 0.000000 0.000000 0.000000 0.826964 -0.184211 44.868887 -0.737466 1.458132 -0.320395 -7.923875 -11.439929 -5.273099 0.000000 0.000000 0.000000 -1.647218 2.806130 44.766318 -1.089401 -2.408465 -0.222896 -0.581923 3.683259 -0.981916 0.000000 0.000000 0.000000
-18.435542 71.807858 344.431811 0.275879 -0.951051 -44.455960 -0.863023 0.485602 44.461907 -0.000000 0.000000 0.000000 0.036212 1.480681 -0.460292 0.000000 0.000000 0.000000 2.015210 -4.851945 0.104398 2.353351 4.566439 0.242473 3.125367 -2.938741 -0.904058 -7.759014 5.632306 4.470318 0.000000 0.000000 0.000000 0.000000 0.000000 0.000000 4.327825 -13.079868 1.317030 -2.687726 8.438313 -2.945510 -15.742274 42.650257 25.891457 0.346605 -19.878593 -17.083968 0.000000 0.000000 0.000000 0.000000 0.000000 0.000000 0.167553 0.278638 44.659955 -0.587546 0.871601 -0.200452 -15.795425 -20.033799 -10.611810 0.000000 0.000000 0.000000 -2.457069 4.386932 44.817388 -1.619918 -3.890460 -0.342700 7.719206 5.673013 -9.704888 0.000000 0.000000 0.000000
-18.204598 71.628839 344.689962 0.251183 -1.280868 -44.529264 -0.350834 0.144000 44.534674 -0.049994 0.064454 0.001937 -0.192156 3.077493 -0.677615 0.000000 0.000000 0.000000 1.102744 -4.295413 0.309849 6.307645 3.859014 -0.574525 9.220515 0.582551 7.670364 -11.470717 4.848104 0.902853 0.000000 0.000000 0.000000 0.000000 0.000000 0.000000 3.868350 -14.192560 1.247119 -2.292436 10.167291 -2.967786 -14.747828 46.602901 25.187694 -2.645743 -21.083156 -16.790758 0.000000 0.000000 0.000000 0.000000 0.000000 0.000000 -1.077374 0.736909 44.539000 -0.000000 0.000000 0.000000 -17.030114 -21.029627 -11.199746 0.000000 0.000000 0.000000 -3.509996 6.365178 45.083998 -2.270010 -5.694875 -0.507043 18.316973 6.140175 -20.734526 0.000000 0.000000 0.000000
-17.804920 71.502382 344.954432 0.167879 -1.615808 -44.848454 -0.357500 0.097750 44.850161 -0.098322 0.076228 -0.004818 -0.440490 4.673753 -1.015677 0.000000 0.000000 0.000000 1.800464 -3.059868 0.074712 10.607111 1.236036 -0.945596 16.548261 1.647006 11.508152 -18.917049 6.172160 -0.583365 0.000000 0.000000 0.000000 0.000000 0.000000 0.000000 2.851610 -14.505251 0.958151 -1.725944 7.269311 -3.074018 -13.304009 52.246573 24.440606 -4.856780 -23.572865 -16.252760 0.000000 0.000000 0.000000 0.000000 0.000000 0.000000 -2.110686 1.694192 44.661126 0.137123 -1.073186 0.222494 -11.251372 -14.753694 -6.667761 0.000000 0.000000 0.000000 -4.701193 8.484292 45.644159 -3.431857 -8.369850 -0.707910 28.385818 6.468190 -31.492471 0.000000 0.000000 0.000000
